<svg width="32" height="32" viewBox="0 0 32 32" fill="none" xmlns="http://www.w3.org/2000/svg">
<path d="M12.8261 26.0137C13.2968 26.0137 13.6784 25.6321 13.6784 25.1614C13.6784 24.6906 13.2968 24.309 12.8261 24.309C12.3554 24.309 11.9738 24.6906 11.9738 25.1614C11.9738 25.6321 12.3554 26.0137 12.8261 26.0137Z" fill="white" stroke="white" stroke-width="1.29" stroke-linecap="round" stroke-linejoin="round"/>
<path d="M22.1997 26.0137C22.6704 26.0137 23.052 25.6321 23.052 25.1614C23.052 24.6906 22.6704 24.309 22.1997 24.309C21.729 24.309 21.3474 24.6906 21.3474 25.1614C21.3474 25.6321 21.729 26.0137 22.1997 26.0137Z" fill="white" stroke="white" stroke-width="1.29" stroke-linecap="round" stroke-linejoin="round"/>
<path fill-rule="evenodd" clip-rule="evenodd" d="M6.00621 7.46985C5.64998 7.46985 5.36121 7.75862 5.36121 8.11485C5.36121 8.47107 5.64998 8.75985 6.00621 8.75985H8.88686L9.6301 12.4733C9.6332 12.4939 9.63727 12.5141 9.64226 12.534L11.0672 19.6533L11.0673 19.654C11.1748 20.1946 11.469 20.6802 11.8984 21.0259C12.3263 21.3703 12.8612 21.5539 13.4102 21.5449H21.6835C22.2325 21.5539 22.7674 21.3703 23.1953 21.0259C23.6248 20.6801 23.9191 20.1942 24.0265 19.6533L24.0275 19.6485L25.3912 12.4974C25.4272 12.3085 25.3771 12.1135 25.2546 11.9654C25.1321 11.8173 24.9499 11.7315 24.7576 11.7315H10.7972L10.048 7.98826C9.98768 7.68682 9.72298 7.46985 9.41556 7.46985H6.00621Z" fill="white"/>
</svg>
