<svg width="25" height="25" viewBox="0 0 25 25" fill="none" xmlns="http://www.w3.org/2000/svg">
<path d="M12.72 11.75C10.6671 11.75 8.98697 10.0707 8.98697 8.017H7.48697C7.48697 10.8993 9.83887 13.25 12.72 13.25V11.75ZM8.98697 8.017C8.98697 5.95594 10.6744 4.25 12.72 4.25V2.75C9.83152 2.75 7.48697 5.14206 7.48697 8.017H8.98697ZM12.72 4.25C14.7729 4.25 16.453 5.92932 16.453 7.983H17.953C17.953 5.10068 15.6011 2.75 12.72 2.75V4.25ZM16.453 7.983C16.453 10.0441 14.7655 11.75 12.72 11.75V13.25C15.6084 13.25 17.953 10.8579 17.953 7.983H16.453ZM19.72 20.75H5.71997V22.25H19.72V20.75ZM5.71997 20.75C5.58418 20.75 5.46997 20.6358 5.46997 20.5H3.96997C3.96997 21.4642 4.75576 22.25 5.71997 22.25V20.75ZM5.46997 20.5V19.5H3.96997V20.5H5.46997ZM5.46997 19.5C5.46997 17.7142 6.93418 16.25 8.71997 16.25V14.75C6.10576 14.75 3.96997 16.8858 3.96997 19.5H5.46997ZM8.71997 16.25H16.72V14.75H8.71997V16.25ZM16.72 16.25C18.5058 16.25 19.97 17.7142 19.97 19.5H21.47C21.47 16.8858 19.3342 14.75 16.72 14.75V16.25ZM19.97 19.5V20.5H21.47V19.5H19.97ZM19.97 20.5C19.97 20.6358 19.8558 20.75 19.72 20.75V22.25C20.6842 22.25 21.47 21.4642 21.47 20.5H19.97Z" fill="#4070F4"/>
</svg>
