<svg width="25" height="25" viewBox="0 0 25 25" fill="none" xmlns="http://www.w3.org/2000/svg">
<path d="M10.4047 10.1847C10.6417 9.16314 11.5721 8.45484 12.6199 8.49832C13.7926 8.43337 14.7979 9.32697 14.8709 10.4992C14.8709 12.0037 12.72 12.5 12.72 13.5004" stroke="#4070F4" stroke-width="1.5" stroke-linecap="round" stroke-linejoin="round"/>
<path d="M12.8452 16.2517C12.8451 16.3207 12.7891 16.3766 12.7201 16.3766C12.651 16.3766 12.5951 16.3206 12.5951 16.2516C12.595 16.1826 12.6509 16.1266 12.72 16.1265C12.7532 16.1265 12.7851 16.1396 12.8085 16.1631C12.832 16.1866 12.8452 16.2185 12.8452 16.2517" stroke="#4070F4" stroke-width="1.5" stroke-linecap="round" stroke-linejoin="round"/>
<path fill-rule="evenodd" clip-rule="evenodd" d="M5.34834 17.6604C2.66524 13.8307 3.35475 8.58534 6.93645 5.57913C10.5181 2.57293 15.8036 2.80335 19.1101 6.10985C22.4166 9.41634 22.647 14.7018 19.6408 18.2835C16.6346 21.8652 11.3893 22.5547 7.55953 19.8716L4.71661 20.5033L5.34834 17.6604Z" stroke="#4070F4" stroke-width="1.5" stroke-linecap="round" stroke-linejoin="round"/>
</svg>
