<svg width="27" height="24" viewBox="0 0 27 24" fill="none" xmlns="http://www.w3.org/2000/svg">
<path d="M13.5 21H7.17741C6.01346 21 5.06989 20.1046 5.06989 19V9C5.06989 7.89543 6.01346 7 7.17741 7H19.8226C20.9865 7 21.9301 7.89543 21.9301 9V11" stroke="white" stroke-width="1.5" stroke-linecap="round" stroke-linejoin="round"/>
<path d="M17.1882 7V6C17.1882 4.067 15.5369 2.5 13.5 2.5V2.5C11.4631 2.5 9.81183 4.067 9.81183 6V6V7" stroke="white" stroke-width="1.5" stroke-linecap="round" stroke-linejoin="round"/>
<path d="M14.0269 12.5L13.5 12" stroke="white" stroke-width="1.5" stroke-linecap="round" stroke-linejoin="round"/>
<path d="M17.7151 12L18.242 11.5" stroke="white" stroke-width="1.5" stroke-linecap="round" stroke-linejoin="round"/>
<path d="M12.9732 16.5L13.5 16" stroke="white" stroke-width="1.5" stroke-linecap="round" stroke-linejoin="round"/>
<path fill-rule="evenodd" clip-rule="evenodd" d="M22.3384 17.7467L20.7778 18.3691C20.5238 18.4705 20.3216 18.6622 20.2148 18.9032L19.5566 20.3877C19.3838 20.7775 18.9713 21.022 18.5264 20.9983C18.0815 20.9747 17.7004 20.688 17.5745 20.2824L16.1787 15.7837C16.0698 15.4326 16.1717 15.0531 16.4444 14.7943C16.7171 14.5355 17.117 14.4387 17.487 14.542L22.2275 15.8656C22.6551 15.985 22.9572 16.3468 22.9821 16.7691C23.007 17.1914 22.7492 17.5828 22.3384 17.7467V17.7467Z" stroke="white" stroke-width="1.5" stroke-linecap="round" stroke-linejoin="round"/>
</svg>
